HIERARCHY
ROOT Hips
{
	OFFSET 0.000000 0.000000 0.000000
	CHANNELS 6 Xposition Yposition Zposition Zrotation Yrotation Xrotation 
	JOINT LHipJoint
	{
		OFFSET 0.000000 0.000000 0.000000
		CHANNELS 3 Zrotation Yrotation Xrotation
		JOINT LeftUpLeg
		{
			OFFSET 1.363060 -1.794630 0.839290
			CHANNELS 3 Zrotation Yrotation Xrotation
			JOINT LeftLeg
			{
				OFFSET 2.448110 -6.726130 0.000000
				CHANNELS 3 Zrotation Yrotation Xrotation
				JOINT LeftFoot
				{
					OFFSET 2.562200 -7.039590 0.000000
					CHANNELS 3 Zrotation Yrotation Xrotation
					JOINT LeftToeBase
					{
						OFFSET 0.157640 -0.433110 2.322550
						CHANNELS 3 Zrotation Yrotation Xrotation
						End Site
						{
							OFFSET 0.000000 0.000000 0.000000
						}
					}
				}
			}
		}
	}
	JOINT RHipJoint
	{
		OFFSET 0.000000 0.000000 0.000000
		CHANNELS 3 Zrotation Yrotation Xrotation
		JOINT RightUpLeg
		{
			OFFSET -1.305520 -1.794630 0.839290
			CHANNELS 3 Zrotation Yrotation Xrotation
			JOINT RightLeg
			{
				OFFSET -2.542530 -6.985550 0.000000
				CHANNELS 3 Zrotation Yrotation Xrotation
				JOINT RightFoot
				{
					OFFSET -2.568260 -7.056230 0.000000
					CHANNELS 3 Zrotation Yrotation Xrotation
					JOINT RightToeBase
					{
						OFFSET -0.164730 -0.452590 2.363150
						CHANNELS 3 Zrotation Yrotation Xrotation
						End Site
						{
							OFFSET 0.000000 0.000000 0.000000
						}
					}
				}
			}
		}
	}
	JOINT LowerBack
	{
		OFFSET 0.000000 0.000000 0.000000
		CHANNELS 3 Zrotation Yrotation Xrotation
		JOINT Spine
		{
			OFFSET 0.028270 2.035590 -0.193380
			CHANNELS 3 Zrotation Yrotation Xrotation
			JOINT Spine1
			{
				OFFSET 0.056720 2.048850 -0.042750
				CHANNELS 3 Zrotation Yrotation Xrotation
				JOINT Neck
				{
					OFFSET 0.000000 0.000000 0.000000
					CHANNELS 3 Zrotation Yrotation Xrotation
					JOINT Neck1
					{
						OFFSET -0.054170 1.746240 0.172020
						CHANNELS 3 Zrotation Yrotation Xrotation
						JOINT Head
						{
							OFFSET 0.104070 1.761360 -0.123970
							CHANNELS 3 Zrotation Yrotation Xrotation
							End Site
							{
								OFFSET 0.000000 0.000000 0.000000
							}
						}
					}
				}
				JOINT LeftShoulder
				{
					OFFSET 0.000000 0.000000 0.000000
					CHANNELS 3 Zrotation Yrotation Xrotation
					JOINT LeftArm
					{
						OFFSET 3.362410 1.200890 -0.311210
						CHANNELS 3 Zrotation Yrotation Xrotation
						JOINT LeftForeArm
						{
							OFFSET 4.983000 -0.000000 -0.000000
							CHANNELS 3 Zrotation Yrotation Xrotation
							JOINT LeftHand
							{
								OFFSET 3.483560 -0.000000 -0.000000
								CHANNELS 3 Zrotation Yrotation Xrotation
								JOINT LeftFingerBase
								{
									OFFSET 0.000000 0.000000 0.000000
									CHANNELS 3 Zrotation Yrotation Xrotation
									JOINT LeftHandIndex1
									{
										OFFSET 0.715260 -0.000000 -0.000000
										CHANNELS 3 Zrotation Yrotation Xrotation
										End Site
										{
											OFFSET 0.000000 0.000000 0.000000
										}
									}
								}
								JOINT LThumb
								{
									OFFSET 0.000000 0.000000 0.000000
									CHANNELS 3 Zrotation Yrotation Xrotation
									End Site
									{
										OFFSET 0.000000 0.000000 0.000000
									}
								}
							}
						}
					}
				}
				JOINT RightShoulder
				{
					OFFSET 0.000000 0.000000 0.000000
					CHANNELS 3 Zrotation Yrotation Xrotation
					JOINT RightArm
					{
						OFFSET -3.136600 1.374050 -0.404650
						CHANNELS 3 Zrotation Yrotation Xrotation
						JOINT RightForeArm
						{
							OFFSET -5.241900 -0.000000 -0.000000
							CHANNELS 3 Zrotation Yrotation Xrotation
							JOINT RightHand
							{
								OFFSET -3.444170 -0.000000 -0.000000
								CHANNELS 3 Zrotation Yrotation Xrotation
								JOINT RightFingerBase
								{
									OFFSET 0.000000 0.000000 0.000000
									CHANNELS 3 Zrotation Yrotation Xrotation
									JOINT RightHandIndex1
									{
										OFFSET -0.622530 -0.000000 -0.000000
										CHANNELS 3 Zrotation Yrotation Xrotation
										End Site
										{
											OFFSET 0.000000 0.000000 0.000000
										}
									}
								}
								JOINT RThumb
								{
									OFFSET 0.000000 0.000000 0.000000
									CHANNELS 3 Zrotation Yrotation Xrotation
									End Site
									{
										OFFSET 0.000000 0.000000 0.000000
									}
								}
							}
						}
					}
				}
			}
		}
	}
}
MOTION
Frames: 8
Frame Time: 0.008333
16.967845 16.744408 1.149031 150.740769 -86.374078 -101.827799 -8.901186 -0.648659 3.072018 -8.856708 -7.077976 -57.492541 -2.530823 -1.002004 18.113278 3.770801 14.335067 -12.505727 -0.196400 -0.000000 -38.781800 8.331578 0.436391 4.679252 1.794753 7.696144 -59.121651 2.251549 0.406487 18.805796 -2.933061 -8.419739 -11.334418 -0.552100 -0.000000 -63.297100 0.368613 -2.088481 -4.333634 -0.451923 -2.291359 -3.657447 -4.857737 -2.520629 1.716660 10.160216 -12.958362 -14.453118 -1.765946 -0.024034 -2.257693 0.000000 0.000000 0.000000 -3.743694 16.237948 3.099644 -56.331147 37.972579 -6.051838 -2.753357 -4.774841 0.009202 7.618151 1.435339 0.104893 -0.182722 -0.104096 -0.000000 0.000000 0.000000 0.000000 0.000000 0.000000 0.000000 13.328966 -11.526080 3.280737 52.117006 -41.209221 -30.051939 2.140787 0.520526 0.000811 -15.491024 3.467385 -0.486684 0.251592 -0.053455 -0.000000 0.000000 0.000000 0.000000 0.000000 0.000000 0.000000 
16.939564 16.648297 1.149432 149.007669 -86.329622 -99.125465 -8.800108 -0.605175 3.263265 -8.838256 -7.696104 -59.920773 -2.522642 -0.742700 20.793766 3.948287 14.384675 -13.892382 -0.556700 0.000000 -38.662400 8.342327 0.484990 4.923621 1.236711 8.072024 -61.882906 2.110848 0.040029 22.068679 -3.137718 -8.591773 -12.869797 -0.285600 0.000000 -62.890601 0.344157 -2.108775 -4.752239 -0.475266 -2.326766 -3.770494 -4.924297 -2.560875 1.698463 10.306843 -12.833223 -14.604999 -1.824385 -0.026922 -2.313427 0.000000 0.000000 0.000000 -3.873538 16.021669 3.151174 -56.527971 37.127656 -5.657266 -2.745336 -5.097897 0.008320 7.425437 1.546197 0.109390 -0.176439 -0.101440 -0.000000 0.000000 0.000000 0.000000 0.000000 0.000000 0.000000 13.654067 -11.368011 3.388080 52.775680 -40.207298 -30.435170 2.084226 0.490664 -0.000064 -15.566814 3.465714 -0.488887 0.246074 -0.055187 -0.000000 0.000000 0.000000 0.000000 0.000000 0.000000 0.000000 
16.910537 16.542356 1.149539 146.734572 -86.294888 -95.909036 -8.702158 -0.560826 3.465047 -8.785939 -8.366668 -62.410289 -2.488438 -0.453174 23.654928 4.136367 14.478210 -15.299837 -0.931600 0.000000 -38.510700 8.362843 0.551755 5.164208 0.629733 8.410114 -64.655215 1.942975 -0.341373 25.454127 -3.356188 -8.823289 -14.447727 0.003100 -0.000000 -62.340500 0.323106 -2.139677 -5.185329 -0.498009 -2.373496 -3.885789 -4.993635 -2.612219 1.682639 10.449768 -12.712037 -14.742586 -1.887001 -0.030505 -2.364145 0.000000 0.000000 0.000000 -4.001199 15.793349 3.198058 -56.697494 36.277784 -5.253658 -2.740944 -5.448393 0.007432 7.205171 1.649050 0.112586 -0.170212 -0.098584 -0.000000 0.000000 0.000000 0.000000 0.000000 0.000000 0.000000 13.990495 -11.221323 3.484085 53.402845 -39.193931 -30.678839 2.037185 0.515549 -0.000909 -15.579134 3.438135 -0.485488 0.240528 -0.056604 -0.000000 0.000000 0.000000 0.000000 0.000000 0.000000 0.000000 
16.880455 16.426594 1.149538 143.946497 -86.266815 -92.214953 -8.610395 -0.520414 3.675862 -8.687354 -9.086115 -64.943715 -2.421922 -0.136655 26.688019 4.334206 14.625445 -16.716100 -1.321500 0.000000 -38.318201 8.390340 0.638185 5.397128 -0.014102 8.703272 -67.409628 1.750734 -0.731359 28.939020 -3.586040 -9.113786 -16.064936 0.318300 0.000000 -61.627500 0.309870 -2.180087 -5.628324 -0.518475 -2.430429 -4.002386 -5.063537 -2.673458 1.668070 10.581730 -12.586443 -14.861732 -1.952372 -0.034719 -2.408417 0.000000 0.000000 0.000000 -4.132692 15.549072 3.239598 -56.838782 35.428233 -4.831649 -2.740691 -5.826297 0.006536 6.955843 1.746637 0.114584 -0.164047 -0.095590 -0.000000 0.000000 0.000000 0.000000 0.000000 0.000000 0.000000 14.320559 -11.079292 3.569282 53.999368 -38.150587 -30.901986 1.996709 0.520132 -0.001582 -15.514431 3.461468 -0.486788 0.234810 -0.058429 -0.000000 0.000000 0.000000 0.000000 0.000000 0.000000 0.000000 
16.849599 16.301180 1.149705 140.686069 -86.243789 -88.095319 -8.526914 -0.489402 3.892784 -8.532627 -9.844976 -67.501035 -2.318974 0.201457 29.877277 4.539396 14.829968 -18.131048 -1.727600 -0.000000 -38.081500 8.422708 0.744343 5.618162 -0.677266 8.945113 -70.117668 1.538711 -1.124383 32.499455 -3.823300 -9.458081 -17.715394 0.663600 0.000000 -60.748300 0.306072 -2.226237 -6.074591 -0.537360 -2.493822 -4.118852 -5.137037 -2.740701 1.653133 10.709085 -12.463801 -14.962595 -2.022950 -0.039800 -2.446189 0.000000 0.000000 0.000000 -4.261757 15.280490 3.276806 -56.955648 34.574708 -4.404652 -2.744314 -6.219462 0.005659 6.687264 1.835577 0.115281 -0.158037 -0.092441 -0.000000 0.000000 0.000000 0.000000 0.000000 0.000000 0.000000 14.665335 -10.942239 3.643188 54.598639 -37.161944 -30.667078 1.979814 0.737713 -0.002460 -15.403582 3.285257 -0.458987 0.229536 -0.058284 -0.000000 0.000000 0.000000 0.000000 0.000000 0.000000 0.000000 
16.817925 16.166609 1.150246 137.013046 -86.220953 -83.623139 -8.454925 -0.473500 4.112071 -8.318422 -10.628092 -70.054645 -2.178262 0.554353 33.199002 4.748058 15.089805 -19.536322 -2.150800 -0.000000 -37.804600 8.456609 0.868286 5.823393 -1.339922 9.131057 -72.749330 1.312330 -1.515828 36.111642 -4.062602 -9.846990 -19.389108 1.040800 0.000000 -59.722500 0.318428 -2.278427 -6.517553 -0.551685 -2.564052 -4.234219 -5.210380 -2.814369 1.635961 10.819094 -12.318931 -15.039927 -2.096777 -0.045647 -2.475817 0.000000 0.000000 0.000000 -4.406396 14.985868 3.308266 -57.044446 33.725629 -3.934993 -2.751374 -6.633495 0.004792 6.402933 1.930953 0.115679 -0.152079 -0.089354 -0.000000 0.000000 0.000000 0.000000 0.000000 0.000000 0.000000 14.991194 -10.791428 3.708055 55.166788 -36.116648 -30.596879 1.963880 0.827510 -0.003022 -15.204704 3.256060 -0.449085 0.223799 -0.059495 -0.000000 0.000000 0.000000 0.000000 0.000000 0.000000 0.000000 
16.785653 16.023594 1.151357 132.997689 -86.196372 -78.879587 -8.395207 -0.477513 4.329154 -8.045991 -11.417136 -72.576759 -2.001592 0.914246 36.623509 4.955540 15.397825 -20.926742 -2.592400 -0.000000 -37.496900 8.490884 1.006941 6.009569 -1.979719 9.259171 -75.279138 1.077330 -1.902478 39.750437 -4.297889 -10.269088 -21.071455 1.449300 0.000000 -58.589400 0.348701 -2.333458 -6.950056 -0.561367 -2.637938 -4.346809 -5.284313 -2.891189 1.616187 10.913482 -12.150662 -15.094600 -2.175165 -0.052367 -2.497585 0.000000 0.000000 0.000000 -4.559177 14.665357 3.335832 -57.111594 32.856979 -3.435356 -2.760502 -7.034212 0.003980 6.124354 2.025738 0.115677 -0.146269 -0.086258 -0.000000 0.000000 0.000000 0.000000 0.000000 0.000000 0.000000 15.305351 -10.621211 3.764070 55.720594 -35.044950 -30.518062 1.955125 0.871535 -0.003380 -14.938439 3.294599 -0.446482 0.217852 -0.061199 -0.000000 0.000000 0.000000 0.000000 0.000000 0.000000 0.000000 
16.752509 15.873214 1.153255 128.724719 -86.167955 -73.960041 -8.348616 -0.505005 4.539336 -7.722804 -12.191893 -75.034203 -1.793472 1.273185 40.113631 5.156876 15.744055 -22.298229 -3.052499 -0.000000 -37.176500 8.524592 1.155804 6.173793 -2.573858 9.329404 -77.680658 0.839199 -2.281954 43.387598 -4.522670 -10.711339 -22.741977 1.885100 0.000000 -57.415200 0.400804 -2.385797 -7.365230 -0.565129 -2.710004 -4.454934 -5.357056 -2.965734 1.595423 10.982387 -11.961492 -15.129744 -2.255406 -0.059658 -2.512440 0.000000 0.000000 0.000000 -4.732578 14.302027 3.358577 -57.157242 31.963150 -2.902437 -2.770703 -7.409919 0.003239 5.872662 2.124323 0.115976 -0.140672 -0.083162 -0.000000 0.000000 0.000000 0.000000 0.000000 0.000000 0.000000 15.586035 -10.430476 3.826404 56.343967 -33.942891 -30.272141 1.945963 1.009629 -0.004355 -14.839805 3.058385 -0.412082 0.212866 -0.060847 -0.000000 0.000000 0.000000 0.000000 0.000000 0.000000 0.000000 
